<svg viewBox="0 0 38.9999 33.0005" xmlns="http://www.w3.org/2000/svg" xmlns:xlink="http://www.w3.org/1999/xlink" width="38.999878" height="33.000488" fill="none" customFrame="#000000">
	<path id="Vector(Border)" d="M23.2578 0.00549126C23.6281 -0.010807 23.9927 0.00917602 24.3516 0.0654402C24.6991 0.119915 25.0413 0.2084 25.3781 0.330895C25.7209 0.455428 26.0453 0.610391 26.3512 0.795782C26.6571 0.981207 26.9447 1.19707 27.2138 1.44338C27.4828 1.68962 27.7231 1.95692 27.9347 2.24527C28.1465 2.5337 28.3295 2.84319 28.4838 3.17375C28.6381 3.50427 28.7578 3.84326 28.843 4.19073C28.9282 4.53818 28.9788 4.89411 28.9948 5.25851C29.0087 5.57369 28.9962 5.88483 28.9575 6.19192C29.0241 6.21044 29.0906 6.23025 29.157 6.25134C29.5064 6.36241 29.8383 6.50493 30.1529 6.6789C30.4617 6.84971 30.7538 7.05084 31.0291 7.28228L37.02 12.2747C37.3336 12.5359 37.6121 12.8242 37.8555 13.1396C38.0988 13.4551 38.3071 13.7976 38.4803 14.1672C38.6534 14.5368 38.7833 14.9161 38.8699 15.305C38.9564 15.6939 38.9997 16.0924 38.9997 16.5005C38.9997 16.9086 38.9564 17.3071 38.8699 17.6959C38.7833 18.0849 38.6534 18.4641 38.4803 18.8338C38.3061 19.2056 38.0964 19.5499 37.8513 19.8668C37.609 20.18 37.3321 20.4663 37.0205 20.7259L31.0444 25.7059C30.7646 25.9427 30.4674 26.1482 30.1528 26.3221C29.8383 26.4961 29.5063 26.6386 29.157 26.7496C28.8077 26.8607 28.4544 26.9361 28.0972 26.9757C27.7399 27.0153 27.3786 27.0192 27.0134 26.9874C26.6481 26.9556 26.2929 26.8893 25.9478 26.7885C25.6029 26.6877 25.268 26.5524 24.9431 26.3826C24.6183 26.2129 24.316 26.0151 24.0362 25.7894C23.7565 25.5637 23.4993 25.31 23.2646 25.0283C23.03 24.7466 22.827 24.4478 22.6555 24.1318C22.6398 24.1029 22.6243 24.0738 22.6091 24.0445L20.6691 29.3797C20.4715 29.9232 20.2049 30.4138 19.8692 30.8514C19.5336 31.2891 19.1289 31.6738 18.6552 32.0055C18.1723 32.3437 17.6627 32.5957 17.1265 32.7615C16.6107 32.9209 16.0703 33.0006 15.5052 33.0005C15.0703 33.0011 14.6471 32.9524 14.2356 32.8546C14.0276 32.8051 13.8225 32.7431 13.6204 32.6685C12.9071 32.4091 12.2918 32.0427 11.7746 31.5691C11.2573 31.0956 10.838 30.515 10.5168 29.8274C10.197 29.1428 10.021 28.4516 9.98882 27.7538C9.97431 27.4394 9.989 27.1236 10.0329 26.8065C9.96933 26.7887 9.9059 26.7698 9.84261 26.7497C9.49331 26.6386 9.16139 26.4961 8.84687 26.3222L8.84671 26.3221C8.53215 26.1481 8.23499 25.9427 7.95522 25.7059L1.97907 20.7259C1.66752 20.4664 1.39062 20.18 1.14837 19.8669C0.903209 19.55 0.693532 19.2056 0.519342 18.8338C0.346191 18.4642 0.216327 18.085 0.129749 17.6961L0.129745 17.6961L0.129724 17.696C0.0431602 17.3071 -0.000121832 16.9086 -0.00012207 16.5005C-0.00012207 16.0923 0.0431669 15.6938 0.129745 15.3049C0.216322 14.9161 0.346188 14.5368 0.519342 14.1672C0.692499 13.7976 0.900768 13.4551 1.14415 13.1396C1.38752 12.8242 1.66601 12.5359 1.9796 12.2747L7.97907 7.27511C8.6009 6.76544 9.2666 6.4092 9.97615 6.2064C10.6187 6.02275 11.2972 5.96492 12.0116 6.0329C12.7633 6.10443 13.4479 6.30313 14.0654 6.62899C14.6829 6.95485 15.2333 7.40787 15.7166 7.98806C15.9797 8.30401 16.2022 8.63271 16.384 8.97417L18.3302 3.6222C18.4547 3.2794 18.6097 2.95504 18.7951 2.64912C18.9805 2.34315 19.1964 2.05562 19.4427 1.78655C19.689 1.51749 19.9563 1.27713 20.2447 1.06546L20.2448 1.06538C20.5332 0.853736 20.8426 0.670773 21.1731 0.516493C21.5036 0.362186 21.8426 0.242448 22.1901 0.15728C22.5375 0.072125 22.8934 0.021529 23.2578 0.00549126ZM24.6242 6.79842L24.2263 7.89266L22.278 13.2505L17.5945 26.13L16.9098 28.013C16.8046 28.3024 16.6128 28.5525 16.3606 28.7291C16.1083 28.9058 15.8078 29.0006 15.4998 29.0005C15.3249 29.0007 15.1514 28.9698 14.9873 28.9092C14.6136 28.7734 14.3092 28.4947 14.1409 28.1344C13.9726 27.7741 13.9542 27.3618 14.0898 26.988L14.3754 26.2026L16.7216 19.7505L21.4064 6.86726L22.0898 4.988C22.1571 4.80281 22.2602 4.63269 22.3932 4.48736C22.5262 4.34203 22.6866 4.22433 22.8651 4.14099C23.0437 4.05764 23.2369 4.01029 23.4337 4.00162C23.6305 3.99296 23.8271 4.02316 24.0123 4.09049C24.1975 4.15777 24.3676 4.26087 24.5129 4.3939C24.6583 4.52693 24.776 4.68729 24.8593 4.86582C24.9427 5.04435 24.99 5.23755 24.9987 5.43439C25.0073 5.63122 24.9771 5.82783 24.9098 6.013L24.6242 6.79842ZM29.0752 9.55919L29.1077 9.58622C29.0969 9.57713 29.0861 9.56812 29.0752 9.55919ZM27.3604 9.99848C27.4782 9.98822 27.5965 9.99195 27.7128 10.0094C27.7914 10.0211 27.869 10.0392 27.9451 10.0633C28.1337 10.1233 28.3087 10.2201 28.4598 10.348L29.9877 11.6213L34.4598 15.348C34.6288 15.4888 34.7647 15.665 34.8581 15.8641C34.9514 16.0633 34.9997 16.2806 34.9997 16.5005C34.9997 16.7204 34.9514 16.9377 34.8581 17.1368C34.7647 17.336 34.6288 17.5122 34.4598 17.653L29.9877 21.3797L28.4598 22.653C28.3087 22.7809 28.1337 22.8777 27.9451 22.9377C27.7564 22.9977 27.5577 23.0197 27.3604 23.0025C27.1632 22.9853 26.9713 22.9293 26.7958 22.8376C26.6204 22.7459 26.4648 22.6203 26.3381 22.4682C26.2113 22.3161 26.116 22.1404 26.0575 21.9512C25.999 21.762 25.9786 21.5632 25.9973 21.3661C26.0161 21.169 26.0737 20.9775 26.1668 20.8028C26.2599 20.6281 26.3867 20.4735 26.5398 20.348L28.033 19.1038L28.0673 19.0752L30.3759 17.1516L31.0029 16.6291L31.1573 16.5005L31.0029 16.3719L30.3759 15.8494L28.0673 13.9258L28.033 13.8972L26.7023 12.7884L26.5398 12.653C26.3867 12.5275 26.2599 12.3729 26.1668 12.1982C26.0737 12.0235 26.0161 11.832 25.9973 11.6349C25.9786 11.4378 25.999 11.2389 26.0575 11.0498C26.116 10.8606 26.2113 10.6849 26.3381 10.5328C26.4648 10.3807 26.6204 10.2551 26.7958 10.1634C26.9713 10.0717 27.1632 10.0157 27.3604 9.99848ZM12.4598 12.653L10.9666 13.8972L10.9118 13.9428L8.62367 15.8494L7.99669 16.3719L7.8423 16.5005L7.99669 16.6291L8.6237 17.1516L10.9323 19.0752L10.9666 19.1038L12.2973 20.2126L12.4598 20.348C12.6129 20.4735 12.7397 20.6281 12.8328 20.8028C12.9259 20.9775 12.9835 21.169 13.0023 21.3661C13.021 21.5632 13.0006 21.762 12.9421 21.9512C12.8836 22.1404 12.7883 22.3161 12.6616 22.4682C12.5348 22.6203 12.3793 22.7459 12.2038 22.8376C12.0283 22.9293 11.8364 22.9853 11.6392 23.0025C11.5214 23.0128 11.4031 23.009 11.2868 22.9916C11.2082 22.9798 11.1306 22.9618 11.0545 22.9377C10.8659 22.8777 10.6909 22.7809 10.5398 22.653L9.0119 21.3797L4.5398 17.653C4.37082 17.5122 4.23486 17.336 4.14155 17.1368C4.04824 16.9377 3.99988 16.7204 3.99988 16.5005C3.99988 16.2806 4.04824 16.0633 4.14155 15.8641C4.23486 15.665 4.37082 15.4888 4.5398 15.348L10.5398 10.348C10.8459 10.0971 11.2387 9.97743 11.6327 10.0149C12.0267 10.0524 12.3898 10.2441 12.6431 10.5481C12.8964 10.8522 13.0193 11.2441 12.9849 11.6383C12.9506 12.0326 12.7618 12.3973 12.4598 12.653ZM25.8752 19.6001C25.8855 19.5914 25.8958 19.5828 25.9062 19.5743L25.8752 19.6001ZM29.1004 23.421L29.1298 23.3965C29.1201 23.4047 29.1103 23.4129 29.1004 23.421ZM9.89923 23.421C9.88934 23.4129 9.87953 23.4047 9.8698 23.3965L9.89923 23.421Z" fill="rgb(22,24,29)" fill-rule="evenodd" />
</svg>
